<svg width="410" height="221" viewBox="0 0 410 221" fill="none" xmlns="http://www.w3.org/2000/svg">
<path d="M224 0.5C259.531 0.5 316.177 0.5 357.533 0.5C386.252 0.5 409.5 23.7812 409.5 52.5V168.5C409.5 197.219 386.219 220.5 357.5 220.5H52.5C23.7812 220.5 0.5 197.219 0.5 168.5V52.5C0.5 23.7812 23.7534 0.5 52.4723 0.5C92.5612 0.5 146.918 0.5 182 0.5" stroke="#AADDFF"/>
<path d="M224 0.5C259.531 0.5 316.177 0.5 357.533 0.5C386.252 0.5 409.5 23.7812 409.5 52.5V168.5C409.5 197.219 386.219 220.5 357.5 220.5H52.5C23.7812 220.5 0.5 197.219 0.5 168.5V52.5C0.5 23.7812 23.7534 0.5 52.4723 0.5C92.5612 0.5 146.918 0.5 182 0.5" stroke="url(#paint0_linear_1_931)"/>
<defs>
<linearGradient id="paint0_linear_1_931" x1="205" y1="0.5" x2="205" y2="220.5" gradientUnits="userSpaceOnUse">
<stop stop-color="#0077B6"/>
<stop offset="1" stop-color="#FFC2CC"/>
</linearGradient>
</defs>
</svg>
