<svg width="434" height="238" viewBox="0 0 434 238" fill="none" xmlns="http://www.w3.org/2000/svg">
<path d="M247.5 0.5H377.5C408.428 0.5 433.5 25.5721 433.5 56.5V181.5C433.5 212.428 408.428 237.5 377.5 237.5H56.5C25.5721 237.5 0.5 212.428 0.5 181.5V56.5C0.5 25.5721 25.5689 0.5 56.4968 0.5C102.972 0.5 165.369 0.5 190.5 0.5" stroke="#AADDFF"/>
<path d="M247.5 0.5H377.5C408.428 0.5 433.5 25.5721 433.5 56.5V181.5C433.5 212.428 408.428 237.5 377.5 237.5H56.5C25.5721 237.5 0.5 212.428 0.5 181.5V56.5C0.5 25.5721 25.5689 0.5 56.4968 0.5C102.972 0.5 165.369 0.5 190.5 0.5" stroke="url(#paint0_linear_1_932)"/>
<defs>
<linearGradient id="paint0_linear_1_932" x1="217" y1="0.5" x2="217" y2="237.5" gradientUnits="userSpaceOnUse">
<stop stop-color="#0077B6"/>
<stop offset="1" stop-color="#800080"/>
</linearGradient>
</defs>
</svg>
