<svg width="434" height="267" viewBox="0 0 434 267" fill="none" xmlns="http://www.w3.org/2000/svg">
<path d="M233.5 0.5H377.5C408.428 0.5 433.5 25.5721 433.5 56.5V210.5C433.5 241.428 408.428 266.5 377.5 266.5H56.5C25.5721 266.5 0.5 241.428 0.5 210.5V56.5C0.5 25.572 25.5721 0.5 56.5 0.5H200.737" stroke="#AADDFF"/>
<path d="M233.5 0.5H377.5C408.428 0.5 433.5 25.5721 433.5 56.5V210.5C433.5 241.428 408.428 266.5 377.5 266.5H56.5C25.5721 266.5 0.5 241.428 0.5 210.5V56.5C0.5 25.572 25.5721 0.5 56.5 0.5H200.737" stroke="url(#paint0_linear_1_916)"/>
<defs>
<linearGradient id="paint0_linear_1_916" x1="217" y1="0.5" x2="217" y2="266.5" gradientUnits="userSpaceOnUse">
<stop stop-color="#0077B6"/>
<stop offset="1" stop-color="#800080"/>
</linearGradient>
</defs>
</svg>
