<svg width="388" height="239" viewBox="0 0 388 239" fill="none" xmlns="http://www.w3.org/2000/svg">
<path d="M215 0.5C237.289 0.5 293.313 0.5 335.512 0.5C364.231 0.5 387.5 23.7812 387.5 52.5V186.5C387.5 215.219 364.219 238.5 335.5 238.5H52.5C23.7812 238.5 0.5 215.219 0.5 186.5V52.5C0.5 23.7812 23.7716 0.5 52.4904 0.5C94.8531 0.5 151.179 0.5 173.5 0.5" stroke="#AADDFF"/>
<path d="M215 0.5C237.289 0.5 293.313 0.5 335.512 0.5C364.231 0.5 387.5 23.7812 387.5 52.5V186.5C387.5 215.219 364.219 238.5 335.5 238.5H52.5C23.7812 238.5 0.5 215.219 0.5 186.5V52.5C0.5 23.7812 23.7716 0.5 52.4904 0.5C94.8531 0.5 151.179 0.5 173.5 0.5" stroke="url(#paint0_linear_1_924)"/>
<defs>
<linearGradient id="paint0_linear_1_924" x1="194" y1="0.5" x2="194" y2="238.5" gradientUnits="userSpaceOnUse">
<stop stop-color="#0077B6"/>
<stop offset="1" stop-color="#FFC2CC"/>
</linearGradient>
</defs>
</svg>
